<svg id="Capa_1" enable-background="new 0 0 497 497" height="512" viewBox="0 0 497 497" width="512" xmlns="http://www.w3.org/2000/svg"><g><path d="m150.85 189.727c-35.565-3.705-85.936 4.919-110.669-2.15-36.952-10.56-40.181-38.542-40.181-53.499 0-21.52 46.16-40.423 115.697-51.146 18.078-2.788 34.422 11.135 34.562 29.425z" fill="#5fa7ee"/><path d="m497 134.078c0 15.453-19.356 53.518-58.521 64.213-24.351 6.649-59.087-11.982-93.289-8.463l.564-77.614c.133-18.281 16.454-32.2 34.526-29.442 70.105 10.697 116.72 29.675 116.72 51.306z" fill="#5fa7ee"/><path d="m0 134.078c0 33.413 111.257 60.5 248.5 60.5s248.5-27.087 248.5-60.5v-.5 220.5c0 33.413-111.257 60.5-248.5 60.5s-248.5-27.087-248.5-60.5v-220.5z" fill="#6cbff8"/><path d="m16 155.477v220c-10.34-6.65-16-13.87-16-21.4v-220c0 7.531 5.66 14.751 16 21.4z" fill="#5fa7ee"/><path d="m477.89 377.388c-21.91 12.76-61.29 23.31-110.86 29.88l-31.84-35.545-4.78-24.055 60.897-112.881c.742-1.375 2.702-1.407 3.488-.057z" fill="#b3e59f"/><path d="m351.617 349.632 33.763 54.946c-5.94.96-12.06 1.86-18.35 2.69l-26.399-26.69-10.221-32.91 60.9-112.88c.74-1.38 2.7-1.41 3.49-.06l8.59 14.74-51.885 96.171c-.678 1.255-.635 2.777.112 3.993z" fill="#95d6a4"/><path d="m367.03 407.267c-32.66 4.32-69.74 6.91-109.17 7.27l55.431-89.21c.785-1.263 2.625-1.258 3.403.009l13.716 22.331z" fill="#b3e59f"/><path d="m324.94 338.767-46.84 75.38c-6.67.2-13.42.33-20.24.39l55.43-89.21c.79-1.26 2.63-1.26 3.4.01z" fill="#95d6a4"/><path d="m224.43 414.298c-95.7-2.24-175.54-17.7-208.37-38.78l98.165-141.384c.83-1.196 2.62-1.132 3.363.12z" fill="#b3e59f"/><path d="m128.42 252.507-92.33 132.97c-7.87-3.13-14.59-6.47-20.03-9.96l98.17-141.38c.83-1.2 2.61-1.14 3.36.12z" fill="#95d6a4"/><circle cx="248.5" cy="272.578" fill="#ffd064" r="39"/><path d="m284.21 288.288c-6.05 13.72-19.76 23.29-35.71 23.29-21.54 0-39-17.46-39-39 0-15.95 9.57-29.66 23.29-35.71-2.12 4.8-3.29 10.12-3.29 15.71 0 21.54 17.46 39 39 39 5.59 0 10.91-1.17 15.71-3.29z" fill="#ffc250"/></g></svg>